<?xml version="1.0" encoding="UTF-8"?>
<svg id="Layer_2" data-name="Layer 2" xmlns="http://www.w3.org/2000/svg" viewBox="0 0 651.69 291.43">
  <g id="Layer_1-2" data-name="Layer 1">
    <path d="M133.84,98.94l-3.16-7.37c18.49-9.32,36.67-18.67,62.55-32.63,13.38-7.22,29.77-16.09,65.26-37.59.1-.06,19.25-11.58,33.34-21.35h6.49L43,291.43H0L261.99,28.96c-51.46,29.69-86.05,48.78-128.15,69.98Z"/>
    <path d="M579.03,130.09c-20.48,17-38.93,29.46-55.37,37.38-16.43,7.93-31.86,11.88-46.28,11.88-10.38,0-17.73-2.44-22.06-7.35-4.32-4.9-6.49-12.97-6.49-24.2,0-23.05,8.79-46.24,26.39-69.58,17.58-23.34,39.57-42.21,65.96-56.62,26.38-14.4,50.82-21.61,73.31-21.61,24.79,0,37.2,12.39,37.2,37.17s-9.38,51.5-28.11,81.03c-18.75,29.54-42.68,57.34-71.8,83.41-29.13,26.08-59.55,47.47-91.26,64.18-31.72,16.71-59.26,25.07-82.61,25.07s-34.6-8.5-34.6-25.5c0-6.62,1.73-12.1,5.19-16.42,3.46-4.32,7.93-6.48,13.41-6.48,8.94,0,13.41,4.32,13.41,12.96,0,6.92-2.01,11.82-6.05,14.69-4.04,2.88-9.08,3.61-15.14,2.16.58,3.75,3.24,6.77,8,9.08,4.76,2.31,10.59,3.46,17.52,3.46,24.5,0,49.37-9.08,74.61-27.23,25.23-18.15,47.36-37.82,66.39-58.99,19.03-21.18,38.49-44.01,58.39-68.5ZM617.95,6.05c-15.86,0-36.62,9.58-62.28,28.74-25.67,19.16-48.52,40.92-68.56,65.26-20.04,24.35-30.06,42.86-30.06,55.53,0,11.82,7.35,17.72,22.06,17.72,19.89,0,42.89-9.43,68.99-28.31,26.09-18.87,48.87-40.19,68.34-63.96,19.46-23.77,29.19-40.84,29.19-51.21,0-15.84-9.23-23.77-27.68-23.77Z"/>
    <g>
      <ellipse cx="355.17" cy="81.99" rx="14.06" ry="14.72"/>
      <ellipse cx="254.04" cy="211.8" rx="14.73" ry="14.72"/>
    </g>
  </g>
</svg>